<svg width="512" height="512" viewBox="0 0 512 512" fill="none" xmlns="http://www.w3.org/2000/svg">
  <defs>
    <linearGradient id="bg" x1="0" y1="0" x2="512" y2="512" gradientUnits="userSpaceOnUse">
      <stop offset="0" stop-color="#312e81"/> <!-- indigo-900 -->
      <stop offset="1" stop-color="#020617"/> <!-- slate-950 -->
    </linearGradient>
    <linearGradient id="primary" x1="128" y1="128" x2="384" y2="384" gradientUnits="userSpaceOnUse">
      <stop offset="0" stop-color="#06b6d4"/> <!-- cyan-500 -->
      <stop offset="1" stop-color="#8b5cf6"/> <!-- violet-500 -->
    </linearGradient>
    <filter id="glow" x="-20%" y="-20%" width="140%" height="140%">
      <feGaussianBlur in="SourceGraphic" stdDeviation="15" result="blur"/>
      <feColorMatrix in="blur" type="matrix" values="
        1 0 0 0 0
        0 1 0 0 0
        0 0 1 0 0
        0 0 0 18 -7" result="glow"/>
      <feBlend in="SourceGraphic" in2="glow" mode="screen"/>
    </filter>
  </defs>
  
  <!-- Base Shape: Rounded Square (Squircle) -->
  <rect width="512" height="512" rx="128" fill="url(#bg)"/>
  
  <!-- Central "Divine Sense" Symbol -->
  <g filter="url(#glow)">
    <!-- Eye / Core Shape -->
    <path d="M256 128 C160 128 96 256 96 256 C96 256 160 384 256 384 C352 384 416 256 416 256 C416 256 352 128 256 128 Z" 
          stroke="url(#primary)" stroke-width="16" fill="url(#bg)" fill-opacity="0.3"/>
    
    <!-- Pupil / Spark -->
    <circle cx="256" cy="256" r="64" fill="url(#primary)"/>
    
    <!-- Neural Connections / Rays -->
    <path d="M256 96 L256 64" stroke="url(#primary)" stroke-width="8" stroke-linecap="round"/>
    <path d="M256 416 L256 448" stroke="url(#primary)" stroke-width="8" stroke-linecap="round"/>
    <path d="M96 256 L64 256" stroke="url(#primary)" stroke-width="8" stroke-linecap="round"/>
    <path d="M416 256 L448 256" stroke="url(#primary)" stroke-width="8" stroke-linecap="round"/>
  </g>
</svg>
